<?xml version="1.0" encoding="utf-8"?>
<!-- Generator: Adobe Illustrator 19.2.0, SVG Export Plug-In . SVG Version: 6.00 Build 0)  -->
<svg version="1.1" id="Слой_1" xmlns="http://www.w3.org/2000/svg" xmlns:xlink="http://www.w3.org/1999/xlink" x="0px" y="0px"
	 viewBox="0 0 502 70.3" style="enable-background:new 0 0 502 70.3;" xml:space="preserve">
<style type="text/css">
	.st0{fill:#565555;}
	.st1{fill:#3A81C3;}
</style>
<title>logo</title>
<path class="st0" d="M84.4,2H71.3v66.3h50.7V54.2H84.4v-12h36.7V28.1H84.4v-12h37.7V2L84.4,2L84.4,2z M0.1,16h21.5v52.2h15.1V16
	h21.6V2H0L0.1,16L0.1,16z M218,2h-16v66.3h38.1l6.1-14.1h-28.1V2L218,2z M151.2,20.1c0-3.7,4.1-6.7,10.4-6.7
	c7.3-0.1,14.4,2.7,19.6,7.8l7-12.1c-7.6-6.1-17.1-9.3-26.8-9.1c-17.4,0-27.1,9.8-27.1,21.1c0,26.3,39.3,17.3,39.3,28.4
	c0,4.2-3.6,7.2-11.1,7.2c-8.4-0.4-16.5-3.6-22.9-9.2l-7.5,12.3c7,6.5,18.1,10.4,29.6,10.4c18.4,0,28.6-9.4,28.6-21.5
	C190.3,21.7,151.2,30.1,151.2,20.1z M294.8,2h-20.2l-24,66.3h16.1l3.3-10h29.3l3.5,10h16.1L294.8,2z M274.9,44.2l9.9-29.1l9.9,29.1
	H274.9z"/>
<path class="st1" d="M321.2,9.4h22.9v58.8h8V9.4H375v-7h-53.8V9.4z M388.4,68.1h43.8v-7h-36.8V38.3h34.8v-7h-34.8V9.4h36.8v-7h-43.8
	V68V68.1z M496,52.2c-4.4,6.1-11.4,9.8-18.9,10c-14.1,0-24.9-11.4-24.9-26.9S463,8.4,477.1,8.4c7.2,0.3,13.8,4,17.9,10l7-4
	C496.4,6.1,487,1.2,477.1,1.4c-18.6,0-32.8,13.8-32.8,33.9s14.3,33.8,32.8,33.8c9.9,0.1,19.3-4.7,24.9-12.9L496,52.2z"/>
</svg>
