<?xml version="1.0" encoding="UTF-8"?> <svg xmlns="http://www.w3.org/2000/svg" viewBox="0 0 555.13 125.42"> <defs> <style>.cls-1{fill:#b6b6b7;}.cls-1,.cls-2{fill-rule:evenodd;}.cls-2,.cls-3{fill:#6197f3;}</style> </defs> <title>new_logo</title> <g id="Layer_2" data-name="Layer 2"> <g id="Layer_1-2" data-name="Layer 1"> <path class="cls-1" d="M175.06,40.6a8.36,8.36,0,0,1,16.72,0v20H216.5a8.36,8.36,0,1,1,0,16.72H191.78v4.11a25.72,25.72,0,0,0,43.08,19,8.32,8.32,0,1,1,11.24,12.28,42.39,42.39,0,0,1-71-31.27V77.31h-3a8.36,8.36,0,1,1,0-16.72h3Z"></path> <path class="cls-1" d="M237.65,45.34a8.36,8.36,0,0,1,13.72-9.54l23.69,34.07,23.7-34.06a8.35,8.35,0,1,1,13.72,9.53h0L283.42,87.11V115.5a8.36,8.36,0,0,1-16.72,0V87.11Z"></path> <path class="cls-1" d="M101.3,100.79a8.3,8.3,0,0,0-10-1.6l-.16.07,0,0-.22.13h0l-4,2.45a46,46,0,0,1-70.2-39.14V62A46,46,0,0,1,86.8,23.51,8.33,8.33,0,0,0,95.55,9.33,62.66,62.66,0,0,0,0,61.27v1.45A62.69,62.69,0,0,0,95.67,116l4-2.45.06,0a3.39,3.39,0,0,0,.67-.51,6.55,6.55,0,0,0,.58-.49A8.31,8.31,0,0,0,101.3,100.79Z"></path> <path class="cls-2" d="M498.66,115.47a8.36,8.36,0,0,1-16.72,0V74.29a42.06,42.06,0,0,1,70.48-31,8.32,8.32,0,1,1-11.23,12.28h0a25.4,25.4,0,0,0-42.53,18.75Z"></path> <path class="cls-2" d="M468.57,120.32v-9.69a3.48,3.48,0,0,0-3.48-3.49h-2.57a8,8,0,0,1-7.63-6L446.54,70h0l-5.21-19.42a24.75,24.75,0,0,0-22.82-18.3c-.32,0-.65,0-1,0h-2.68a8.36,8.36,0,0,0,0,16.72H418a8.05,8.05,0,0,1,7.19,6l13.56,50.6a24.74,24.74,0,0,0,23.73,18.32h2.6A3.48,3.48,0,0,0,468.57,120.32Z"></path> <path class="cls-1" d="M163.11,120.32v-9.69a3.48,3.48,0,0,0-3.48-3.49h-2.56a8,8,0,0,1-7.63-6L141.08,70h0l-5.2-19.42a24.76,24.76,0,0,0-22.83-18.3c-.32,0-.64,0-1,0H109.4a8.36,8.36,0,0,0,0,16.72h3.16a8.1,8.1,0,0,1,4.36,1.68,8,8,0,0,1,2.82,4.28l13.56,50.6A24.74,24.74,0,0,0,157,123.8h2.6A3.48,3.48,0,0,0,163.11,120.32Z"></path> <path class="cls-3" d="M415.09,112.17,369.15,6.31a8.34,8.34,0,0,0-13.64-2l-.06.06A8.76,8.76,0,0,0,354,6.69l-25.22,58.4a3.47,3.47,0,0,0-.3,1.41h0A3.49,3.49,0,0,0,332,70h10.56a3.5,3.5,0,0,0,3.18-2.06l16-37.08,38.15,87.91a8.32,8.32,0,1,0,15.28-6.59Z"></path> <path class="cls-3" d="M370.51,76.13H329.36a8.35,8.35,0,0,0-7.9,5.63l-2.91,6.68-10.46,24h0a8.32,8.32,0,0,0,7.79,11.29,8.16,8.16,0,0,0,3-.58,8.3,8.3,0,0,0,4.55-4.28l0-.06.13-.32.22-.51,5.69-13,4.37-10a3.5,3.5,0,0,1,3.18-2.06h33.41a8.36,8.36,0,1,0,0-16.72Z"></path> </g> </g> </svg> 