<?xml version="1.0" encoding="UTF-8"?> <svg xmlns="http://www.w3.org/2000/svg" viewBox="0 -0.00004841155532631092 43.20000076293945 9.6100492477417" preserveAspectRatio="xMidYMid meet"> <defs> <style>.f64681d6-4416-43dd-a1ea-3493c360cad2{fill-rule:evenodd;}.\33 bf0cfe6-7dae-46a2-86ca-8d62238793dc{fill:#cd2d32;}</style> </defs> <g id="2f864a0b-4e26-40f3-a01f-4326c095df61" data-name="Слой 2"> <g id="78199d2c-4cff-40ee-be52-3cd9a7144713" data-name="Слой 1"> <path class="f64681d6-4416-43dd-a1ea-3493c360cad2" d="M3.29,9.61H5.81V4.79a2.28,2.28,0,0,1,4.56,0V9.61h3.23a2.46,2.46,0,0,1-.71-1.76V4.79A4.79,4.79,0,0,0,12,2h.91V.77h2.52V2h1.25V3.8H15.42V7.34a1.26,1.26,0,0,0,1.25,1.25v1h2.72a4.8,4.8,0,1,1,7.4-4.05,4.4,4.4,0,0,1-.09.88H19.9A2.23,2.23,0,0,0,22,7.82a2.21,2.21,0,0,0,1.87-1l2.07,1.45a4.86,4.86,0,0,1-1.33,1.3h5.19a4.8,4.8,0,1,1,6.52-6.8L34.21,4.25a2.27,2.27,0,1,0,0,2.61l2.07,1.45a5,5,0,0,1-1.36,1.3H43.2V0H8.08A4.72,4.72,0,0,0,5.81.57V0H3.29V9.61ZM24.07,4.68a2.26,2.26,0,0,0-4.17,0Z"></path> <rect class="3bf0cfe6-7dae-46a2-86ca-8d62238793dc" y="3.29" width="2.52" height="6.32"></rect> <rect class="3bf0cfe6-7dae-46a2-86ca-8d62238793dc" width="2.52" height="2.52"></rect> </g> </g> </svg> 