<?xml version="1.0" encoding="utf-8"?>
<!-- Generator: Adobe Illustrator 16.0.0, SVG Export Plug-In . SVG Version: 6.00 Build 0)  -->
<!DOCTYPE svg PUBLIC "-//W3C//DTD SVG 1.1//EN" "http://www.w3.org/Graphics/SVG/1.1/DTD/svg11.dtd">
<svg version="1.1" id="Layer_1" xmlns="http://www.w3.org/2000/svg" xmlns:xlink="http://www.w3.org/1999/xlink" x="0px" y="0px"
	 width="1650px" height="555px" viewBox="6.583 39.5 1650 555" enable-background="new 6.583 39.5 1650 555" xml:space="preserve">
<path d="M1299.73,221.538l33.262,296.402l33.99-296.402H1299.73L1299.73,221.538z M1359.732,594.274h-53.518l-71.494-552.5h45.107
	l14.109,138.559h78.816l14.668-138.559h45.129L1359.732,594.274L1359.732,594.274z M1611.324,388.827
	c0-36.821-15.902-54.872-47.725-54.872h-36.869v215.921h44.102c28.215,0,40.492-15.174,40.492-54.882V388.827L1611.324,388.827z
	 M1604.111,234.291v-94.59c0-39.728-12.314-53.443-40.512-53.443h-36.869v202.915h36.869
	C1591.796,289.173,1604.111,274.019,1604.111,234.291L1604.111,234.291L1604.111,234.291z M1656.152,398.946v80.164
	c0,46.211-7.23,77.268-21.676,92.423c-14.463,15.173-39.783,23.115-76.65,23.115h-76.689V41.775h76.371
	c35.432,0,58.881,7.643,71.904,24.264c13.006,15.874,19.51,45.502,19.51,89.545v70.774c0,46.932-17.357,75.092-52.77,83.771
	C1635.916,318.791,1656.152,354.893,1656.152,398.946L1656.152,398.946L1656.152,398.946z M1095.861,594.648V41.775h46.865v507.82
	h72.896v45.054H1095.861L1095.861,594.648z M959.263,594.218l2.896-450.91l-76.65,449.883h-31.805l-67.971-452.779l2.887,453.807
	h-44.828V41.915l70.119-0.719l60.032,397.468l60.039-397.468l70.109,0.719v552.303H959.263L959.263,594.218z M615.089,141.14
	c0-39.718-12.295-54.882-40.484-54.882H537.71v223.145h36.895c28.189,0,40.484-15.165,40.484-54.882V141.14L615.089,141.14z
	 M606.41,349.119l64.346,245.379l-43.416,0.15l-62.86-240.476h-26.77v240.044h-44.83V41.915l70.148-0.438
	c36.869,0,62.18,7.941,75.924,23.114c13.744,15.164,20.975,45.492,20.975,92.441v83.042
	C659.927,305.785,646.193,339.729,606.41,349.119L606.41,349.119L606.41,349.119z M276.689,136.805v362.505
	c-5.064,72.951,86.051,72.951,80.986,0V136.805C362.74,63.862,271.625,63.872,276.689,136.805L276.689,136.805L276.689,136.805z
	 M317.183,595.358c-54.957,0-85.322-28.871-85.322-115.521V156.304c0-86.667,30.365-115.537,85.322-115.537
	s85.322,28.87,85.322,115.537v323.535C402.505,566.487,372.14,595.358,317.183,595.358L317.183,595.358L317.183,595.358z
	 M52.546,86.258v207.26h97.178v44.772H52.546v255.928H7.718l0.43-552.741h146.641v44.781H52.546L52.546,86.258z"/>
</svg>
