<?xml version="1.0" encoding="UTF-8"?> <!-- Generator: Adobe Illustrator 16.0.0, SVG Export Plug-In . SVG Version: 6.00 Build 0) --> <svg xmlns="http://www.w3.org/2000/svg" xmlns:xlink="http://www.w3.org/1999/xlink" id="Layer_1" x="0px" y="0px" width="135.333px" height="95.167px" viewBox="0 0 135.333 95.167" style="enable-background:new 0 0 135.333 95.167;" xml:space="preserve"> <g> <path d="M9.282,89.672c-0.852,0.957-1.676,1.219-2.586,1.219c-2.496,0-2.588-2.252-2.588-3.182v-4.84h2.311v4.475 c0,1.535,0.443,1.992,1.297,1.992c1.461,0,1.566-1.566,1.566-2.129v-4.338h2.314v7.732H9.282V89.672z"></path> <path d="M15.666,83.799c0.623-0.854,1.643-1.221,2.68-1.221c1.053,0,2.586,0.291,2.586,3.168v4.855h-2.314v-4.478 c0-0.761-0.076-1.989-1.309-1.989c-1.52,0-1.549,1.776-1.549,2.11V90.6h-2.316v-7.731h2.223L15.666,83.799L15.666,83.799z"></path> <path d="M22.748,79.945h2.314v1.812h-2.314V79.945z M25.062,82.87v7.731h-2.314V82.87H25.062z"></path> <path d="M28.86,88.165c0.045,0.836,0.623,1.172,1.551,1.172c0.531,0,1.217-0.228,1.217-0.819c0-0.896-1.062-1.004-2.225-1.174 c-1.141-0.169-2.738-0.519-2.738-2.392c0-0.697,0.289-2.373,3.561-2.373c2.818,0,3.428,1.387,3.473,2.422h-2.102 c-0.092-0.896-0.914-0.864-1.215-0.864c-0.396,0-1.311,0.043-1.311,0.666c0,0.911,1.098,0.977,1.934,1.098 c1.322,0.199,3.027,0.443,3.027,2.356c0,1.171-0.592,2.634-3.695,2.634c-2.408,0-3.793-1.097-3.855-2.726H28.86z"></path> <path d="M42.994,87.678c-0.092,1.201-0.869,3.213-3.82,3.213c-2.525,0-4.123-1.463-4.123-4.143c0-1.84,0.818-4.17,4.262-4.17 c2.646,0,3.471,1.629,3.607,3.045h-2.225c-0.166-1.248-0.789-1.486-1.473-1.486c-0.504,0-1.77,0.135-1.77,2.445 c0,2.574,1.266,2.754,1.738,2.754c1.229,0,1.504-1.125,1.521-1.658H42.994z"></path> <path d="M44.489,85.366c0.107-2.695,2.801-2.787,3.637-2.787c3.484,0,3.562,1.993,3.547,2.896l-0.047,3.526 c-0.016,0.843,0.018,1.356,0.457,1.463v0.14h-2.434l-0.201-0.76h-0.045c-0.607,0.76-1.643,1.047-2.588,1.047 c-2.465,0-2.689-1.601-2.689-2.238c0-1.766,1.477-2.189,2.875-2.42c1.705-0.256,2.312-0.104,2.357-0.863c0-0.076,0-0.141,0-0.215 c-0.029-1.006-0.992-1.018-1.246-1.018c-0.414,0-1.418,0.088-1.418,1.229H44.489z M49.375,86.916 c-0.701,0.307-0.623,0.258-1.52,0.412c-0.49,0.076-1.355,0.242-1.355,1.111c0,0.729,0.76,0.896,1.188,0.896 c0.559,0,1.688-0.381,1.688-1.933L49.375,86.916L49.375,86.916z"></path> <path d="M55.73,83.799c0.621-0.854,1.641-1.221,2.676-1.221c1.051,0,2.59,0.291,2.59,3.168v4.855h-2.314v-4.478 c0-0.761-0.076-1.989-1.311-1.989c-1.52,0-1.551,1.776-1.551,2.11V90.6h-2.312v-7.731h2.223L55.73,83.799L55.73,83.799z"></path> <path d="M71.723,84.137c-0.197-0.021-0.408-0.021-0.607-0.021c-1.321,0-2.391,0.611-2.391,3.318v3.168h-2.314v-7.732h2.314v1.268 c0.596-1.268,1.703-1.559,2.723-1.559h0.275V84.137z"></path> <path d="M80.5,88.366c-0.606,2.188-2.586,2.522-4.019,2.522c-1.02,0-4.156-0.225-4.156-4.17c0-2.678,1.812-4.141,4.337-4.141 c3.762,0,3.959,3.35,3.989,4.295l0.017,0.422h-5.937c0.013,0.748,0.353,2.041,1.855,2.041c0.672,0,1.371-0.289,1.57-0.973 L80.5,88.366L80.5,88.366z M78.26,86.008c-0.027-1.66-1.062-1.871-1.629-1.871c-1.363,0-1.854,1.076-1.898,1.871H78.26z"></path> <path d="M84.024,88.165c0.047,0.836,0.623,1.172,1.554,1.172c0.53,0,1.215-0.228,1.215-0.819c0-0.896-1.063-1.004-2.218-1.174 c-1.146-0.169-2.741-0.519-2.741-2.392c0-0.697,0.287-2.373,3.562-2.373c2.817,0,3.428,1.387,3.474,2.422h-2.103 c-0.095-0.896-0.914-0.864-1.22-0.864c-0.396,0-1.306,0.043-1.306,0.666c0,0.911,1.091,0.977,1.929,1.098 c1.324,0.199,3.03,0.443,3.03,2.356c0,1.171-0.592,2.634-3.698,2.634c-2.406,0-3.789-1.097-3.851-2.726H84.024z"></path> <path d="M98.393,88.366c-0.609,2.188-2.594,2.522-4.021,2.522c-1.02,0-4.154-0.225-4.154-4.17c0-2.678,1.811-4.141,4.336-4.141 c3.764,0,3.957,3.35,3.988,4.295l0.018,0.422h-5.938c0.016,0.748,0.353,2.041,1.858,2.041c0.668,0,1.371-0.289,1.566-0.973 L98.393,88.366L98.393,88.366z M96.151,86.008c-0.028-1.66-1.063-1.871-1.629-1.871c-1.367,0-1.854,1.076-1.901,1.871H96.151z"></path> <path d="M100.001,85.366c0.106-2.695,2.799-2.787,3.64-2.787c3.479,0,3.559,1.993,3.545,2.896l-0.05,3.526 c-0.016,0.843,0.019,1.356,0.459,1.463v0.14h-2.436l-0.199-0.76h-0.045c-0.604,0.76-1.644,1.047-2.584,1.047 c-2.47,0-2.695-1.601-2.695-2.238c0-1.766,1.476-2.189,2.875-2.42c1.705-0.256,2.316-0.104,2.361-0.863c0-0.076,0-0.141,0-0.215 c-0.033-1.006-0.99-1.018-1.248-1.018c-0.412,0-1.416,0.088-1.416,1.229H100.001z M104.883,86.916 c-0.695,0.307-0.621,0.258-1.521,0.412c-0.484,0.076-1.354,0.242-1.354,1.111c0,0.729,0.764,0.896,1.188,0.896 c0.562,0,1.688-0.381,1.688-1.933L104.883,86.916L104.883,86.916L104.883,86.916z"></path> <path d="M114.33,84.137c-0.197-0.021-0.414-0.021-0.609-0.021c-1.325,0-2.391,0.611-2.391,3.318v3.168h-2.312v-7.732h2.312v1.268 c0.592-1.268,1.705-1.559,2.725-1.559h0.275V84.137z"></path> <path d="M122.744,87.678c-0.091,1.201-0.869,3.213-3.818,3.213c-2.524,0-4.123-1.463-4.123-4.143c0-1.84,0.818-4.17,4.259-4.17 c2.646,0,3.469,1.629,3.604,3.045h-2.224c-0.168-1.248-0.791-1.486-1.477-1.486c-0.498,0-1.762,0.135-1.762,2.445 c0,2.574,1.264,2.754,1.732,2.754c1.233,0,1.504-1.125,1.521-1.658H122.744z"></path> <path d="M126.487,83.708c0.976-1.129,2.285-1.129,2.623-1.129c1.244,0,2.558,0.551,2.558,3.168v4.854h-2.315v-4.477 c0-0.721-0.074-1.99-1.31-1.99c-1.521,0-1.556,1.824-1.556,2.111V90.6h-2.311V79.945h2.311V83.708L126.487,83.708z"></path> </g> <g> <line style="fill:none;stroke:#000000;stroke-width:0.8504;stroke-linecap:round;stroke-linejoin:round;stroke-miterlimit:10;" x1="4.544" y1="72.479" x2="4.544" y2="4"></line> <line style="fill:none;stroke:#000000;stroke-width:0.8504;stroke-linecap:round;stroke-linejoin:round;stroke-miterlimit:10;" x1="4.544" y1="72.479" x2="67.886" y2="4"></line> <line style="fill:none;stroke:#000000;stroke-width:0.8504;stroke-linecap:round;stroke-linejoin:round;stroke-miterlimit:10;" x1="4.544" y1="72.479" x2="131.223" y2="4"></line> </g> <line style="fill:none;stroke:#000000;stroke-miterlimit:10;" x1="67.886" y1="72.479" x2="4.544" y2="4"></line> <line style="fill:none;stroke:#000000;stroke-miterlimit:10;" x1="67.886" y1="72.479" x2="67.886" y2="4"></line> <line style="fill:none;stroke:#000000;stroke-width:0.8504;stroke-linecap:round;stroke-linejoin:round;stroke-miterlimit:10;" x1="67.886" y1="72.479" x2="131.223" y2="4"></line> <line style="fill:none;stroke:#000000;stroke-miterlimit:10;" x1="131.223" y1="72.479" x2="67.886" y2="4"></line> <line style="fill:none;stroke:#000000;stroke-width:0.8504;stroke-linecap:round;stroke-linejoin:round;stroke-miterlimit:10;" x1="131.223" y1="72.479" x2="131.223" y2="4"></line> <line style="fill:none;stroke:#000000;stroke-width:0.8504;stroke-linecap:round;stroke-linejoin:round;stroke-miterlimit:10;" x1="131.223" y1="72.479" x2="4.544" y2="4"></line> </svg> 