<?xml version="1.0" encoding="UTF-8"?> <svg xmlns="http://www.w3.org/2000/svg" width="236" height="32" viewBox="0 0 236 32" fill="none"> <path d="M9.04862 16.1217C9.04949 17.0169 8.78477 17.8922 8.28796 18.6369C7.79116 19.3816 7.0846 19.9622 6.25771 20.3051C5.43083 20.6481 4.52078 20.7381 3.64274 20.5636C2.7647 20.3892 1.95814 19.9582 1.32514 19.3252C0.692142 18.6922 0.261154 17.8857 0.086722 17.0076C-0.0877099 16.1296 0.00225567 15.2195 0.345233 14.3926C0.68821 13.5658 1.26878 12.8592 2.01347 12.3624C2.75816 11.8656 3.63349 11.6009 4.52869 11.6017C5.72745 11.6017 6.87711 12.0779 7.72477 12.9256C8.57242 13.7732 9.04862 14.9229 9.04862 16.1217Z" fill="#3173B3"></path> <path d="M151.444 10.0513C151.428 9.5886 151.504 9.12732 151.67 8.69499C151.836 8.26265 152.087 7.86813 152.408 7.53496C152.73 7.20179 153.115 6.93681 153.541 6.75582C153.968 6.57484 154.426 6.48156 154.889 6.48156C155.352 6.48156 155.81 6.57484 156.236 6.75582C156.662 6.93681 157.048 7.20179 157.369 7.53496C157.691 7.86813 157.942 8.26265 158.107 8.69499C158.273 9.12732 158.35 9.5886 158.333 10.0513C158.35 10.514 158.273 10.9753 158.107 11.4076C157.942 11.8399 157.691 12.2345 157.369 12.5676C157.048 12.9008 156.662 13.1658 156.236 13.3468C155.81 13.5278 155.352 13.621 154.889 13.621C154.426 13.621 153.968 13.5278 153.541 13.3468C153.115 13.1658 152.73 12.9008 152.408 12.5676C152.087 12.2345 151.836 11.8399 151.67 11.4076C151.504 10.9753 151.428 10.514 151.444 10.0513ZM157.278 10.0513C157.292 9.72894 157.24 9.40713 157.126 9.10522C157.012 8.80332 156.839 8.52758 156.616 8.2946C156.392 8.06163 156.124 7.87623 155.827 7.74957C155.531 7.62292 155.211 7.55762 154.889 7.55762C154.566 7.55762 154.247 7.62292 153.95 7.74957C153.653 7.87623 153.385 8.06163 153.162 8.2946C152.939 8.52758 152.765 8.80332 152.651 9.10522C152.537 9.40713 152.486 9.72894 152.5 10.0513C152.486 10.3737 152.537 10.6955 152.651 10.9974C152.765 11.2993 152.939 11.575 153.162 11.808C153.385 12.041 153.653 12.2264 153.95 12.353C154.247 12.4797 154.566 12.545 154.889 12.545C155.211 12.545 155.531 12.4797 155.827 12.353C156.124 12.2264 156.392 12.041 156.616 11.808C156.839 11.575 157.012 11.2993 157.126 10.9974C157.24 10.6955 157.292 10.3737 157.278 10.0513Z" fill="#1D1D1D"></path> <path d="M159.691 6.84968H165.661V13.2661H164.605V7.80009H160.742V13.2661H159.691V6.84968Z" fill="#1D1D1D"></path> <path d="M169.112 7.80009H166.791V6.84968H172.484V7.80009H170.172V13.2661H169.116L169.112 7.80009Z" fill="#1D1D1D"></path> <path d="M173.724 6.84968H174.78V11.7638H174.893L178.31 6.84968H179.575V13.2661H178.52V8.3607H178.393L174.99 13.2661H173.707L173.724 6.84968Z" fill="#1D1D1D"></path> <path d="M181.538 6.84968H183.079L185.401 11.9434H185.528L187.88 6.84968H189.417V13.2661H188.335V8.32128H188.208L185.922 13.2661H184.98L182.703 8.32128H182.589V13.2661H181.538V6.84968Z" fill="#1D1D1D"></path> <path d="M191.339 6.84968H192.395V11.7638H192.509L195.925 6.84968H197.208V13.2661H196.157V8.3607H196.03L192.623 13.2661H191.339V6.84968Z" fill="#1D1D1D"></path> <path d="M198.807 11.1024H199.863C199.863 11.9565 200.59 12.5653 201.615 12.5653C202.512 12.5653 203.152 12.0967 203.152 11.409C203.152 10.7214 202.591 10.4192 201.838 10.4192H200.695V9.46441H201.851C202.521 9.46441 203.007 9.0965 203.007 8.56217C203.007 7.95338 202.385 7.54606 201.518 7.54606C200.581 7.54606 199.933 8.05412 199.933 8.78116H198.917C198.917 7.50664 199.994 6.59127 201.544 6.59127C202.981 6.59127 204.037 7.36649 204.037 8.50961C204.05 8.81936 203.95 9.12335 203.756 9.36505C203.562 9.60674 203.286 9.76968 202.981 9.82355V9.9418C203.336 10.004 203.656 10.1928 203.882 10.473C204.109 10.7533 204.226 11.106 204.212 11.466C204.212 12.6748 203.134 13.5026 201.632 13.5026C199.99 13.5201 198.807 12.504 198.807 11.1024Z" fill="#1D1D1D"></path> <path d="M205.197 11.6368C205.197 10.5068 206.165 9.67025 208.07 9.44688L209.849 9.23228V8.98263C209.849 8.10667 209.227 7.5592 208.171 7.5592C207.203 7.5592 206.568 8.02784 206.581 8.82934H205.517C205.517 7.4716 206.568 6.60879 208.184 6.60879C209.8 6.60879 210.904 7.54606 210.904 9.00891V13.2661H209.849V12.3244H209.735C209.498 12.6978 209.166 13.0008 208.772 13.2018C208.378 13.4029 207.938 13.4947 207.497 13.4675C206.113 13.4675 205.197 12.7449 205.197 11.6368ZM209.849 10.7126V10.1389L208.07 10.3404C206.756 10.5068 206.253 11.0148 206.253 11.6105C206.253 12.2061 206.787 12.5916 207.65 12.5916C208.959 12.5916 209.849 11.7901 209.849 10.7126Z" fill="#1D1D1D"></path> <path d="M218.599 13.2661H212.73V6.84968H213.786V12.3113H217.404V6.84968H218.459V12.3113H219.554V15.1713H218.599V13.2661Z" fill="#1D1D1D"></path> <path d="M220.92 6.84968H221.976V11.7638H222.09L225.51 6.84968H226.794V13.2661H225.738V8.3607H225.611L222.204 13.2661H220.92V6.84968Z" fill="#1D1D1D"></path> <path d="M230.437 10.8878C229.088 10.7608 228.401 9.88486 228.401 8.86876C228.401 7.67308 229.408 6.84968 230.932 6.84968H233.775V13.2661H232.724V10.901H231.602L229.684 13.2661H228.392L230.437 10.8878ZM232.724 9.9418V7.80009H230.932C230.056 7.80009 229.456 8.23807 229.456 8.86876C229.456 9.49944 230.03 9.9418 230.932 9.9418H232.724Z" fill="#1D1D1D"></path> <path d="M151.79 19.551H152.859V22.2446H156.603V19.551H157.659V25.9674H156.603V23.195H152.859V25.9674H151.803L151.79 19.551Z" fill="#1D1D1D"></path> <path d="M159.13 22.6738C159.162 21.7953 159.533 20.9632 160.166 20.3529C160.799 19.7425 161.643 19.4014 162.523 19.4014C163.402 19.4014 164.247 19.7425 164.879 20.3529C165.512 20.9632 165.883 21.7953 165.915 22.6738C165.915 22.8008 165.915 22.9541 165.915 23.1118H160.221C160.264 23.7108 160.536 24.2701 160.982 24.6726C161.428 25.0751 162.012 25.2895 162.612 25.271C163.056 25.2849 163.496 25.1762 163.882 24.9568C164.268 24.7373 164.587 24.4157 164.802 24.0272L165.678 24.4651C165.17 25.5601 164.014 26.2171 162.59 26.2171C162.126 26.2271 161.665 26.1417 161.235 25.9661C160.805 25.7906 160.416 25.5285 160.092 25.1963C159.767 24.8641 159.514 24.4688 159.349 24.0349C159.184 23.6009 159.109 23.1377 159.13 22.6738ZM164.798 22.1789C164.723 21.628 164.446 21.1248 164.02 20.7676C163.594 20.4104 163.05 20.2249 162.494 20.2474C161.943 20.2249 161.403 20.4113 160.983 20.7694C160.564 21.1275 160.294 21.6309 160.23 22.1789H164.798Z" fill="#1D1D1D"></path> <path d="M170.79 26.2214C168.718 26.1426 167.181 24.6973 167.181 22.7176C167.181 20.738 168.718 19.3496 170.79 19.2751V16.6166H171.845V19.297C173.904 19.3715 175.441 20.8212 175.441 22.7395C175.441 24.6579 173.904 26.1426 171.845 26.2433V28.9238H170.79V26.2214ZM170.79 20.2474C170.124 20.2474 169.486 20.5118 169.015 20.9825C168.544 21.4531 168.28 22.0914 168.28 22.757C168.28 23.4226 168.544 24.061 169.015 24.5316C169.486 25.0022 170.124 25.2666 170.79 25.2666V20.2474ZM174.385 22.7395C174.36 22.0785 174.083 21.4522 173.61 20.9889C173.138 20.5256 172.507 20.2603 171.845 20.2474V25.271C172.513 25.2577 173.15 24.9869 173.624 24.5153C174.097 24.0436 174.37 23.4075 174.385 22.7395Z" fill="#1D1D1D"></path> <path d="M178.296 20.5014H175.971V19.551H181.664V20.5014H179.352V25.9674H178.296V20.5014Z" fill="#1D1D1D"></path> <path d="M182.449 22.6738C182.48 21.7953 182.851 20.9632 183.484 20.3529C184.117 19.7425 184.962 19.4014 185.841 19.4014C186.72 19.4014 187.565 19.7425 188.197 20.3529C188.83 20.9632 189.201 21.7953 189.233 22.6738C189.233 22.8008 189.233 22.9541 189.233 23.1118H183.539C183.581 23.7112 183.853 24.2712 184.299 24.6739C184.745 25.0766 185.33 25.2906 185.931 25.271C186.375 25.2844 186.814 25.1755 187.2 24.9561C187.586 24.7367 187.905 24.4154 188.12 24.0272L188.996 24.4651C188.488 25.5601 187.332 26.2171 185.931 26.2171C185.465 26.2295 185.001 26.146 184.569 25.9715C184.137 25.797 183.745 25.5355 183.419 25.2031C183.092 24.8707 182.837 24.4745 182.67 24.0394C182.504 23.6043 182.428 23.1394 182.449 22.6738ZM188.116 22.1789C188.041 21.6288 187.764 21.1262 187.339 20.7691C186.914 20.412 186.371 20.226 185.817 20.2474C185.266 20.226 184.728 20.4129 184.309 20.7709C183.89 21.1289 183.621 21.6317 183.557 22.1789H188.116Z" fill="#1D1D1D"></path> <path d="M189.881 25.0126H190.717C191.265 24.6316 191.479 23.9308 191.633 22.6125L191.987 19.5467H196.459V25.0126H197.532V27.8726H196.591V25.9674H190.809V27.8726H189.872L189.881 25.0126ZM195.408 25.0126V20.5014H192.89L192.588 23.0549C192.474 23.9834 192.281 24.4651 191.812 24.8856V25.0126H195.408Z" fill="#1D1D1D"></path> <path d="M198.137 22.7527C198.137 21.8396 198.499 20.964 199.145 20.3184C199.791 19.6728 200.666 19.3102 201.579 19.3102C202.492 19.3102 203.368 19.6728 204.013 20.3184C204.659 20.964 205.022 21.8396 205.022 22.7527C205.022 23.6657 204.659 24.5413 204.013 25.1869C203.368 25.8325 202.492 26.1952 201.579 26.1952C200.666 26.1952 199.791 25.8325 199.145 25.1869C198.499 24.5413 198.137 23.6657 198.137 22.7527ZM203.966 22.7527C203.986 22.427 203.939 22.1008 203.828 21.7941C203.717 21.4873 203.544 21.2065 203.321 20.969C203.097 20.7314 202.827 20.5422 202.528 20.4128C202.228 20.2834 201.905 20.2166 201.579 20.2166C201.253 20.2166 200.93 20.2834 200.631 20.4128C200.331 20.5422 200.061 20.7314 199.838 20.969C199.614 21.2065 199.442 21.4873 199.331 21.7941C199.22 22.1008 199.173 22.427 199.192 22.7527C199.173 23.0783 199.22 23.4045 199.331 23.7112C199.442 24.018 199.614 24.2988 199.838 24.5363C200.061 24.7739 200.331 24.9632 200.631 25.0925C200.93 25.2219 201.253 25.2887 201.579 25.2887C201.905 25.2887 202.228 25.2219 202.528 25.0925C202.827 24.9632 203.097 24.7739 203.321 24.5363C203.544 24.2988 203.717 24.018 203.828 23.7112C203.939 23.4045 203.986 23.0783 203.966 22.7527Z" fill="#1D1D1D"></path> <path d="M206.226 23.0549C206.226 18.3422 207.014 17.0327 209.848 17.0327C210.877 17.0327 211.298 16.8706 211.298 16.437H212.222C212.222 17.5407 211.486 18.0269 209.949 18.0269C208.057 18.0269 207.47 18.6751 207.321 20.8825H207.448C207.673 20.5288 207.989 20.2421 208.362 20.0525C208.736 19.8629 209.154 19.7774 209.572 19.8051C211.438 19.8051 212.581 21.1891 212.581 23.0549C212.581 23.9005 212.245 24.7115 211.647 25.3095C211.049 25.9074 210.238 26.2433 209.393 26.2433C208.547 26.2433 207.736 25.9074 207.138 25.3095C206.54 24.7115 206.204 23.9005 206.204 23.0549H206.226ZM211.547 23.0198C211.561 22.7313 211.515 22.4431 211.414 22.1727C211.312 21.9022 211.157 21.6552 210.957 21.4464C210.758 21.2376 210.518 21.0714 210.253 20.9578C209.987 20.8443 209.701 20.7858 209.412 20.7858C209.123 20.7858 208.838 20.8443 208.572 20.9578C208.307 21.0714 208.067 21.2376 207.867 21.4464C207.668 21.6552 207.512 21.9022 207.411 22.1727C207.31 22.4431 207.264 22.7313 207.277 23.0198C207.277 24.3338 208.153 25.3192 209.41 25.3192C210.667 25.3192 211.547 24.3513 211.547 23.0198Z" fill="#1D1D1D"></path> <path d="M214.088 19.551H215.143V21.5176H216.514C218.065 21.5176 219.081 22.3935 219.081 23.7074C219.081 25.0214 218.065 25.9455 216.514 25.9455H214.088V19.551ZM216.514 25.0126C217.443 25.0126 218.038 24.5177 218.038 23.7425C218.038 22.9673 217.43 22.4723 216.514 22.4723H215.143V25.0126H216.514ZM220.018 19.551H221.074V25.9674H220.018V19.551Z" fill="#1D1D1D"></path> <path d="M227.157 23.0811C226.892 23.4039 226.557 23.6629 226.178 23.8388C225.799 24.0146 225.385 24.103 224.968 24.0972C223.592 24.0972 222.576 23.0943 222.576 21.5044V19.551H223.632V21.5044C223.632 22.5468 224.205 23.1337 225.195 23.1337C225.581 23.149 225.965 23.0618 226.306 22.881C226.648 22.7002 226.935 22.4323 227.14 22.1044V19.5773H228.191V25.9674H227.162L227.157 23.0811Z" fill="#1D1D1D"></path> <path d="M230.131 19.551H231.186V24.4651H231.3L234.717 19.551H236V25.9674H234.944V21.0621H234.817L231.414 25.9674H230.131V19.551Z" fill="#1D1D1D"></path> <path d="M16.6475 15.9684C16.6475 22.7395 20.309 25.9893 28.8627 25.9893C36.663 25.9893 40.6881 23.2388 40.9946 17.0765H33.6279C33.3476 18.9379 31.9329 19.8795 28.8802 19.8795C24.6318 19.8795 23.8829 18.0488 23.8829 15.9684C23.8829 13.888 24.6011 12.1317 28.8802 12.1317C31.946 12.1317 33.3476 13.0471 33.6279 14.8778H41.0122C40.7056 8.71984 36.6499 6 28.8802 6C20.3265 6 16.6475 9.21914 16.6475 15.9684Z" fill="#1D1D1D"></path> <path d="M87.9721 25.709H95.9214L87.8626 6.27592H77.1453L69.0952 25.709H77.0358L78.3497 22.2052H86.6231L87.9721 25.709ZM80.2549 17.2122L82.5061 11.2557L84.7529 17.1991L80.2549 17.2122Z" fill="#1D1D1D"></path> <path d="M115.087 6.27592V12.9419H103.7V6.27592H96.4863V25.709H103.704V19.0474H115.092V25.709H122.31V6.27592H115.087Z" fill="#1D1D1D"></path> <path d="M147.007 6.27592H123.129V12.4076H131.45V25.709H138.668V12.3857H146.99L147.007 6.27592Z" fill="#1D1D1D"></path> <path d="M50.087 6.27592V17.7422L58.4699 6.27592H67.8908V25.709H60.6905V14.2471L52.3076 25.709H42.8691V6.27592H50.087Z" fill="#1D1D1D"></path> </svg> 